<?xml version="1.0" encoding="utf-8"?>
<!-- Generator: Adobe Illustrator 24.0.0, SVG Export Plug-In . SVG Version: 6.00 Build 0)  -->
<svg version="1.1" id="Layer_1" xmlns="http://www.w3.org/2000/svg" xmlns:xlink="http://www.w3.org/1999/xlink" x="0px" y="0px"
	 viewBox="0 0 370.2 111.12" style="enable-background:new 0 0 370.2 111.12;" xml:space="preserve">
<style type="text/css">
	.st0{fill:#E6320F;}
</style>
<g>
	<path d="M214.05,91.95c0,0,1.44,2.33,4.68,2.33c2.06,0,4.15-1.06,4.15-3.14c0-1.97-1.63-2.69-3.67-3.14
		c-1.85-0.41-3.29-0.79-3.29-2.14c0-1.13,1.1-1.87,2.59-1.87c1.97,0,3.1,1.22,3.1,1.22l0.82-0.91c0,0-1.34-1.54-3.91-1.54
		c-2.4,0-3.86,1.54-3.86,3.1c0,1.82,1.49,2.74,3.89,3.26c1.7,0.38,3.05,0.77,3.05,2.02c0,1.44-1.66,1.92-2.86,1.92
		c-2.59,0-3.7-1.94-3.7-1.94L214.05,91.95z M205.1,94.28c2.69,0,3.74-2.23,3.74-2.23v1.94h1.13V83.05h-1.25v7.61
		c0,0-0.96,2.4-3.38,2.4c-1.82,0-3.1-0.96-3.1-3.22v-6.79H201v6.98C201,93.01,203.01,94.28,205.1,94.28 M189.26,86.09
		c0,0,0.84-2.11,2.9-2.11c1.66,0,2.66,0.96,2.66,3.19v6.82h1.25v-7.2c0-3.07-1.94-4.03-3.62-4.03c-2.42,0-3.43,1.99-3.5,2.14
		c-0.65-1.54-1.97-2.14-3.31-2.14c-2.45,0-3.41,2.14-3.41,2.14v-1.85h-1.13v10.94h1.25v-7.9c0,0,0.94-2.11,3-2.11
		c1.66,0,2.66,0.96,2.66,3.19v6.82h1.25V86.09z M168.12,91.95c0,0,1.44,2.33,4.68,2.33c2.06,0,4.15-1.06,4.15-3.14
		c0-1.97-1.63-2.69-3.67-3.14c-1.85-0.41-3.29-0.79-3.29-2.14c0-1.13,1.1-1.87,2.59-1.87c1.97,0,3.1,1.22,3.1,1.22l0.82-0.91
		c0,0-1.34-1.54-3.91-1.54c-2.4,0-3.86,1.54-3.86,3.1c0,1.82,1.49,2.74,3.89,3.26c1.7,0.38,3.05,0.77,3.05,2.02
		c0,1.44-1.66,1.92-2.86,1.92c-2.59,0-3.7-1.94-3.7-1.94L168.12,91.95z M162.14,79.49c0,0.53,0.43,0.96,0.96,0.96
		s0.96-0.43,0.96-0.96s-0.43-0.96-0.96-0.96S162.14,78.97,162.14,79.49 M162.48,93.99h1.25V83.05h-1.25V93.99z M157.15,82.76
		c-2.26,0-3.19,2.06-3.19,2.06v-1.78h-1.13v10.94h1.25v-7.9c0,0,0.89-2.11,2.78-2.11c1.01,0,1.46,0.26,1.46,0.26l0.53-1.2
		C158.85,83.05,158.18,82.76,157.15,82.76 M143.04,94.28c2.69,0,3.74-2.23,3.74-2.23v1.94h1.13V83.05h-1.25v7.61
		c0,0-0.96,2.4-3.38,2.4c-1.82,0-3.1-0.96-3.1-3.22v-6.79h-1.25v6.98C138.93,93.01,140.95,94.28,143.04,94.28 M129.38,93.05
		c-2.74,0-4.27-2.06-4.27-4.54s1.54-4.54,4.27-4.54c2.74,0,4.27,2.06,4.27,4.54S132.12,93.05,129.38,93.05 M129.38,82.76
		c-3.26,0-5.57,2.59-5.57,5.76s2.3,5.76,5.57,5.76c3.26,0,5.57-2.59,5.57-5.76S132.64,82.76,129.38,82.76 M116.52,93.99h1.25V78.34
		h5.06v-1.15h-11.38v1.15h5.06V93.99z M98.4,90.51c0,0-1.2,2.54-3.94,2.54c-2.45,0-4.15-1.99-4.15-4.54s1.7-4.54,4.15-4.54
		c2.76,0,3.94,2.54,3.94,2.54V90.51z M99.64,93.99V75.85h-1.22v9.05c-0.29-0.43-1.56-2.14-3.96-2.14c-3.05,0-5.45,2.35-5.45,5.76
		c0,3.41,2.4,5.76,5.45,5.76c2.78,0,4.06-2.3,4.06-2.3v2.02H99.64z M80.92,82.76c-2.69,0-3.74,2.28-3.74,2.28v-1.99h-1.13v10.94
		h1.25v-7.56c0,0,0.96-2.45,3.38-2.45c1.78,0,3.1,0.96,3.1,3.22v6.79h1.25v-6.98C85.03,84.03,82.96,82.76,80.92,82.76 M66.26,94.28
		c2.69,0,3.74-2.23,3.74-2.23v1.94h1.13V83.05h-1.25v7.61c0,0-0.96,2.4-3.38,2.4c-1.82,0-3.1-0.96-3.1-3.22v-6.79h-1.25v6.98
		C62.16,93.01,64.17,94.28,66.26,94.28"/>
	<path d="M347.06,52.76c-2.69,0-3.74,2.28-3.74,2.28v-1.99h-1.13v10.94h1.25v-7.56c0,0,0.96-2.45,3.38-2.45
		c1.78,0,3.1,0.96,3.1,3.22v6.79h1.25v-6.98C351.16,54.03,349.1,52.76,347.06,52.76 M328.79,57.87c0.05-1.2,1.06-3.89,4.1-3.89
		c2.88,0,3.96,2.64,4.01,3.89H328.79z M332.9,52.76c-3.26,0-5.4,2.66-5.4,5.76c0,3.12,2.35,5.76,5.62,5.76
		c1.8,0,3.53-0.96,4.58-2.23l-0.84-0.86c-0.74,0.94-2.06,1.87-3.74,1.87c-2.9,0-4.27-2.38-4.37-4.03h9.43
		c0.02-0.26,0.02-0.29,0.02-0.5C338.2,55.16,335.8,52.76,332.9,52.76 M319.41,52.76c-2.69,0-3.74,2.28-3.74,2.28v-1.99h-1.13v10.94
		h1.25v-7.56c0,0,0.96-2.45,3.38-2.45c1.78,0,3.1,0.96,3.1,3.22v6.79h1.25v-6.98C323.51,54.03,321.45,52.76,319.41,52.76
		 M304.98,63.05c-2.74,0-4.27-2.06-4.27-4.54c0-2.47,1.54-4.54,4.27-4.54c2.74,0,4.27,2.06,4.27,4.54
		C309.26,60.99,307.72,63.05,304.98,63.05 M304.98,52.76c-3.26,0-5.57,2.59-5.57,5.76c0,3.17,2.3,5.76,5.57,5.76
		c3.26,0,5.57-2.59,5.57-5.76C310.55,55.35,308.25,52.76,304.98,52.76 M293.54,49.49c0,0.53,0.43,0.96,0.96,0.96
		c0.53,0,0.96-0.43,0.96-0.96s-0.43-0.96-0.96-0.96C293.97,48.53,293.54,48.97,293.54,49.49 M293.87,63.99h1.25V53.05h-1.25V63.99z
		 M287.39,60.51c0,0-1.13,2.54-3.96,2.54c-2.45,0-4.13-1.99-4.13-4.54c0-2.54,1.68-4.54,4.13-4.54c2.83,0,3.96,2.54,3.96,2.54V60.51
		z M287.51,53.05v2.02c0,0-1.2-2.3-4.08-2.3c-3.02,0-5.42,2.35-5.42,5.76c0,3.41,2.4,5.76,5.42,5.76c2.42,0,3.6-1.61,3.96-2.11v2.14
		c0,2.45-1.3,4.27-4.1,4.27c-2.78,0-4.18-1.9-4.18-1.9l-0.84,0.89c0,0,1.8,2.23,5.02,2.23c3.19,0,5.35-2.11,5.35-5.54V53.05H287.51z
		 M265.55,57.87c0.05-1.2,1.06-3.89,4.1-3.89c2.88,0,3.96,2.64,4.01,3.89H265.55z M269.66,52.76c-3.26,0-5.4,2.66-5.4,5.76
		c0,3.12,2.35,5.76,5.62,5.76c1.8,0,3.53-0.96,4.58-2.23l-0.84-0.86c-0.74,0.94-2.06,1.87-3.74,1.87c-2.9,0-4.27-2.38-4.37-4.03
		h9.43c0.02-0.26,0.02-0.29,0.02-0.5C274.96,55.16,272.56,52.76,269.66,52.76 M251.23,63.99h1.25v-7.3h2.5l4.7,7.3h1.51l-4.8-7.37
		c1.18-0.12,4.34-1.06,4.34-4.68c0-2.76-1.99-4.75-5.45-4.75h-4.06V63.99z M252.47,55.49v-7.1h2.88c2.5,0,4.08,1.34,4.08,3.55
		c0,2.21-1.56,3.55-4.08,3.55H252.47z M235.39,67.52l1.1,0.38l2.04-5.62l-1.15-0.41L235.39,67.52z M224.78,54.2h2.38v6.84
		c0,1.8,0.98,3.24,3.12,3.24c1.1,0,2.16-0.65,2.16-0.65l-0.48-1.08c0,0-0.77,0.5-1.63,0.5c-1.49,0-1.92-1.03-1.92-2.26v-6.6h3.72
		v-1.15h-3.72v-3.53h-1.25v3.53h-2.38V54.2z M215.44,54.2h2.35v9.79h1.25V54.2h2.88v-1.15h-2.88v-3.96c0-1.34,0.5-2.3,1.92-2.3
		c0.74,0,1.39,0.38,1.39,0.38l0.53-1.08c-0.86-0.46-1.44-0.53-2.09-0.53c-1.49,0-3,1.1-3,3.19v4.3h-2.35V54.2z M206.75,63.05
		c-1.42,0-2.98-0.74-2.98-2.47s1.78-2.5,3.22-2.5c2.18,0,3.48,0.91,3.48,0.91v1.85C210.47,60.85,209.15,63.05,206.75,63.05
		 M207.23,52.76c-2.3,0-4.1,1.15-4.1,1.15l0.55,1.08c0,0,1.58-1.01,3.58-1.01c1.2,0,3.22,0.46,3.22,3.12v0.82
		c0,0-1.42-1.03-3.65-1.03c-2.14,0-4.34,1.3-4.34,3.7c0,2.42,2.14,3.7,3.98,3.7c2.69,0,4.13-2.18,4.13-2.18v1.9h1.13v-7.18
		C211.72,54.58,210.28,52.76,207.23,52.76 M190.43,54.85v-9h-1.25v18.14h1.25v-7.56c0,0,0.96-2.45,3.38-2.45
		c1.78,0,3.1,0.96,3.1,3.22v6.79h1.25v-6.98c0-2.98-2.06-4.25-4.1-4.25C191.49,52.76,190.43,54.85,190.43,54.85 M180.57,63.05
		c-2.62,0-4.34-2.11-4.34-4.54c0-2.42,1.73-4.54,4.34-4.54c2.3,0,3.48,1.63,3.48,1.63l0.89-0.79c0,0-1.51-2.06-4.37-2.06
		c-3.26,0-5.64,2.59-5.64,5.76c0,3.17,2.38,5.76,5.64,5.76c2.98,0,4.49-2.23,4.49-2.23l-0.86-0.82
		C184.19,61.23,182.99,63.05,180.57,63.05 M162.88,61.95c0,0,1.44,2.33,4.68,2.33c2.06,0,4.15-1.06,4.15-3.14
		c0-1.97-1.63-2.69-3.67-3.14c-1.85-0.41-3.29-0.79-3.29-2.14c0-1.13,1.1-1.87,2.59-1.87c1.97,0,3.1,1.22,3.1,1.22l0.82-0.91
		c0,0-1.34-1.54-3.91-1.54c-2.4,0-3.86,1.54-3.86,3.1c0,1.82,1.49,2.74,3.89,3.26c1.7,0.38,3.05,0.77,3.05,2.02
		c0,1.44-1.66,1.92-2.86,1.92c-2.59,0-3.7-1.94-3.7-1.94L162.88,61.95z M152.16,54.2h2.38v6.84c0,1.8,0.98,3.24,3.12,3.24
		c1.1,0,2.16-0.65,2.16-0.65l-0.48-1.08c0,0-0.77,0.5-1.63,0.5c-1.49,0-1.92-1.03-1.92-2.26v-6.6h3.72v-1.15h-3.72v-3.53h-1.25v3.53
		h-2.38V54.2z M148.2,52.76c-2.26,0-3.19,2.06-3.19,2.06v-1.78h-1.13v10.94h1.25v-7.9c0,0,0.89-2.11,2.78-2.11
		c1.01,0,1.46,0.26,1.46,0.26l0.53-1.2C149.9,53.05,149.23,52.76,148.2,52.76 M137.06,49.49c0,0.53,0.43,0.96,0.96,0.96
		s0.96-0.43,0.96-0.96s-0.43-0.96-0.96-0.96S137.06,48.97,137.06,49.49 M137.4,63.99h1.25V53.05h-1.25V63.99z M116.3,53.05
		l4.87,11.42l3.82-9.14l3.79,9.14l4.9-11.42h-1.3l-3.53,8.57l-3.46-8.57h-0.72l-3.48,8.57l-3.55-8.57H116.3z M111.21,60.51
		c0,0-1.2,2.54-3.94,2.54c-2.45,0-4.15-1.99-4.15-4.54c0-2.54,1.7-4.54,4.15-4.54c2.76,0,3.94,2.54,3.94,2.54V60.51z M112.46,63.99
		V45.85h-1.22v9.05c-0.29-0.43-1.56-2.14-3.96-2.14c-3.05,0-5.45,2.35-5.45,5.76c0,3.41,2.4,5.76,5.45,5.76
		c2.78,0,4.06-2.3,4.06-2.3v2.02H112.46z M93.74,52.76c-2.69,0-3.74,2.28-3.74,2.28v-1.99h-1.13v10.94h1.25v-7.56
		c0,0,0.96-2.45,3.38-2.45c1.78,0,3.1,0.96,3.1,3.22v6.79h1.25v-6.98C97.84,54.03,95.78,52.76,93.74,52.76 M78.98,63.05
		c-1.42,0-2.98-0.74-2.98-2.47s1.78-2.5,3.22-2.5c2.18,0,3.48,0.91,3.48,0.91v1.85C82.7,60.85,81.38,63.05,78.98,63.05 M79.46,52.76
		c-2.3,0-4.1,1.15-4.1,1.15l0.55,1.08c0,0,1.58-1.01,3.58-1.01c1.2,0,3.22,0.46,3.22,3.12v0.82c0,0-1.42-1.03-3.65-1.03
		c-2.14,0-4.34,1.3-4.34,3.7c0,2.42,2.14,3.7,3.98,3.7c2.69,0,4.13-2.18,4.13-2.18v1.9h1.13v-7.18
		C83.95,54.58,82.51,52.76,79.46,52.76 M62.52,63.99h9.26v-1.15h-8.02V47.19h-1.25V63.99z"/>
	<path d="M273.88,22.61c-2.42,0-3.31,2.06-3.31,2.06s-0.7-2.06-3.46-2.06c-2.26,0-3.07,1.92-3.07,1.92V22.9h-1.87v11.09h2.02v-7.73
		c0,0,0.74-1.78,2.38-1.78c1.44,0,2.38,0.89,2.38,2.69v6.82h2.02v-7.73c0,0,0.72-1.78,2.38-1.78c1.44,0,2.38,0.89,2.38,2.69v6.82
		h2.02v-7.13C277.72,24.13,276.18,22.61,273.88,22.61 M252.38,34.28c2.4,0,3.41-1.99,3.41-1.99v1.7h1.87V22.9h-2.02v7.68
		c0,0-0.89,1.82-2.76,1.82c-1.49,0-2.66-0.82-2.66-2.71V22.9h-2.02v7.13C248.2,32.77,250.17,34.28,252.38,34.28 M240.95,19.35
		c0,0.74,0.62,1.37,1.37,1.37c0.74,0,1.37-0.62,1.37-1.37c0-0.74-0.62-1.37-1.37-1.37C241.58,17.98,240.95,18.61,240.95,19.35
		 M241.31,33.99h2.02V22.9h-2.02V33.99z M236.32,22.61c-2.11,0-3.1,1.99-3.1,1.99v-1.7h-1.87v11.09h2.02v-7.63
		c0,0,0.79-1.87,2.54-1.87c0.84,0,1.27,0.24,1.27,0.24l0.74-1.82C237.93,22.9,237.23,22.61,236.32,22.61 M218.68,27.49
		c0.14-1.15,1.13-3,3.53-3c2.23,0,3.36,1.75,3.43,3H218.68z M222.21,22.61c-3.34,0-5.54,2.59-5.54,5.83c0,3.29,2.42,5.83,5.78,5.83
		c2.93,0,4.61-2.18,4.61-2.18l-1.27-1.32c0,0-1.15,1.63-3.34,1.63c-2.09,0-3.7-1.56-3.82-3.24h8.95c0.02-0.26,0.02-0.43,0.02-0.65
		C227.61,24.94,225.31,22.61,222.21,22.61 M206.01,24.73h2.16v6.07c0,2.45,1.75,3.48,3.34,3.48c0.65,0,1.34-0.14,2.3-0.67
		l-0.74-1.66c0,0-0.65,0.46-1.27,0.46c-1.08,0-1.61-0.62-1.61-1.7v-5.98h3.46V22.9h-3.46v-3.38h-2.02v3.38h-2.16V24.73z
		 M193.89,31.95c0,0,1.63,2.33,4.75,2.33c2.14,0,4.39-1.1,4.39-3.24c0-2.26-1.8-3.05-3.91-3.5c-1.82-0.38-2.69-0.84-2.69-1.68
		c0-0.72,0.7-1.42,2.11-1.42c1.68,0,2.78,1.22,2.78,1.22l1.32-1.37c0,0-1.49-1.68-4.1-1.68c-2.47,0-4.08,1.58-4.08,3.19
		c0,2.09,1.68,3.02,4.06,3.5c1.7,0.34,2.52,0.82,2.52,1.78c0,0.89-1.27,1.37-2.4,1.37c-2.18,0-3.36-1.8-3.36-1.8L193.89,31.95z
		 M187.36,19.35c0,0.74,0.62,1.37,1.37,1.37s1.37-0.62,1.37-1.37c0-0.74-0.62-1.37-1.37-1.37S187.36,18.61,187.36,19.35
		 M187.72,33.99h2.02V22.9h-2.02V33.99z M178.67,22.61c-2.4,0-3.41,1.85-3.41,1.85V22.9h-1.87v11.09h2.02v-7.63
		c0,0,0.96-1.87,2.76-1.87c1.49,0,2.66,0.82,2.66,2.71v6.79h2.02v-7.13C182.85,24.13,180.88,22.61,178.67,22.61 M166.15,19.35
		c0,0.74,0.62,1.37,1.37,1.37c0.74,0,1.37-0.62,1.37-1.37c0-0.74-0.62-1.37-1.37-1.37C166.77,17.98,166.15,18.61,166.15,19.35
		 M166.51,33.99h2.02V22.9h-2.02V33.99z M157.8,22.61c-2.42,0-3.31,2.06-3.31,2.06s-0.7-2.06-3.46-2.06c-2.26,0-3.07,1.92-3.07,1.92
		V22.9h-1.87v11.09h2.02v-7.73c0,0,0.74-1.78,2.38-1.78c1.44,0,2.38,0.89,2.38,2.69v6.82h2.02v-7.73c0,0,0.72-1.78,2.38-1.78
		c1.44,0,2.38,0.89,2.38,2.69v6.82h2.02v-7.13C161.64,24.13,160.1,22.61,157.8,22.61 M133,31.95c0,0,1.63,2.33,4.75,2.33
		c2.14,0,4.39-1.1,4.39-3.24c0-2.26-1.8-3.05-3.91-3.5c-1.82-0.38-2.69-0.84-2.69-1.68c0-0.72,0.7-1.42,2.11-1.42
		c1.68,0,2.78,1.22,2.78,1.22l1.32-1.37c0,0-1.49-1.68-4.1-1.68c-2.47,0-4.08,1.58-4.08,3.19c0,2.09,1.68,3.02,4.06,3.5
		c1.7,0.34,2.52,0.82,2.52,1.78c0,0.89-1.27,1.37-2.4,1.37c-2.18,0-3.36-1.8-3.36-1.8L133,31.95z M121.05,27.49
		c0.14-1.15,1.13-3,3.53-3c2.23,0,3.36,1.75,3.43,3H121.05z M124.58,22.61c-3.34,0-5.54,2.59-5.54,5.83c0,3.29,2.42,5.83,5.78,5.83
		c2.93,0,4.61-2.18,4.61-2.18l-1.27-1.32c0,0-1.15,1.63-3.34,1.63c-2.09,0-3.7-1.56-3.82-3.24h8.95c0.02-0.26,0.02-0.43,0.02-0.65
		C129.98,24.94,127.68,22.61,124.58,22.61 M112.84,30.49c0,0-1.06,1.92-3.26,1.92c-2.26,0-3.67-1.78-3.67-3.96
		c0-2.18,1.46-3.96,3.67-3.96s3.26,1.92,3.26,1.92V30.49z M109.27,22.61c-3,0-5.38,2.57-5.38,5.83s2.38,5.83,5.38,5.83
		c2.66,0,3.74-1.9,3.74-1.9v1.61h1.85V15.85h-2.02v8.42C112.84,24.27,111.72,22.61,109.27,22.61 M95.97,22.61
		c-2.4,0-3.41,1.85-3.41,1.85V22.9h-1.87v11.09h2.02v-7.63c0,0,0.96-1.87,2.76-1.87c1.49,0,2.66,0.82,2.66,2.71v6.79h2.02v-7.13
		C100.15,24.13,98.18,22.61,95.97,22.61 M80.9,34.28c2.4,0,3.41-1.99,3.41-1.99v1.7h1.87V22.9h-2.02v7.68c0,0-0.89,1.82-2.76,1.82
		c-1.49,0-2.66-0.82-2.66-2.71V22.9h-2.02v7.13C76.72,32.77,78.69,34.28,80.9,34.28 M64.22,24.44v-5.33h2.74
		c1.9,0,3.05,1.03,3.05,2.66c0,1.63-1.15,2.66-3.05,2.66H64.22z M67.46,32.07h-3.24v-5.76h3.24c2.4,0,3.46,1.3,3.46,2.88
		S69.86,32.07,67.46,32.07 M62.2,33.99h5.26c3.31,0,5.47-1.87,5.47-4.8c0-3.34-2.57-4.08-2.81-4.13c0.24-0.05,1.9-1.01,1.9-3.29
		c0-2.81-1.94-4.58-5.4-4.58H62.2V33.99z"/>
</g>
<polygon class="st0" points="43.23,22.68 43.23,17.01 17.01,17.01 19.65,22.68 "/>
<polygon class="st0" points="24.94,34.02 43.23,34.02 43.23,28.35 22.29,28.35 "/>
</svg>
